<svg width="1280" height="861" viewBox="0 0 1280 861" fill="none" xmlns="http://www.w3.org/2000/svg">
<path d="M0 369.379C0 316.359 42.9807 273.379 96 273.379H152.798C205.817 273.379 248.798 316.359 248.798 369.379V861H18C8.05888 861 0 852.941 0 843V369.379Z" fill="#343434"/>
<path d="M1031.2 369.379C1031.2 316.359 1074.18 273.379 1127.2 273.379H1184C1237.02 273.379 1280 316.359 1280 369.379V843C1280 852.941 1271.94 861 1262 861H1031.2V369.379Z" fill="#343434"/>
<path fill-rule="evenodd" clip-rule="evenodd" d="M144.041 157.164V543.455H581.811C599.484 543.455 613.811 529.128 613.811 511.455V470.698C613.811 453.025 599.484 438.698 581.811 438.698H248.798V157.164C248.798 128.236 272.249 104.785 301.176 104.785H581.811C599.484 104.785 613.811 90.4583 613.811 72.7852V32.0281C613.811 14.355 599.484 0.0281372 581.811 0.0281372H301.176C214.393 0.0281372 144.041 70.3801 144.041 157.164Z" fill="#343434"/>
<path fill-rule="evenodd" clip-rule="evenodd" d="M144.041 543.455V861H581.811C599.484 861 613.811 846.673 613.811 829V788.243C613.811 770.57 599.484 756.243 581.811 756.243H280.798C263.125 756.243 248.798 741.916 248.798 724.243V543.455H144.041Z" fill="#343434"/>
<path fill-rule="evenodd" clip-rule="evenodd" d="M666.189 829C666.189 846.673 680.516 861 698.189 861H1135.96V543.455H1031.2V724.243C1031.2 741.916 1016.88 756.243 999.202 756.243H698.189C680.516 756.243 666.189 770.57 666.189 788.243V829Z" fill="#343434"/>
<path fill-rule="evenodd" clip-rule="evenodd" d="M1135.96 157.164C1135.96 70.3801 1065.61 0.0281372 978.824 0.0281372H698.189C680.516 0.0281372 666.189 14.355 666.189 32.0281V72.7852C666.189 90.4583 680.516 104.785 698.189 104.785H978.824C1007.75 104.785 1031.2 128.236 1031.2 157.164V438.698H698.189C680.516 438.698 666.189 453.025 666.189 470.698V511.455C666.189 529.128 680.516 543.455 698.189 543.455H1135.96V157.164Z" fill="#343434"/>
<rect x="548.338" y="756.243" width="65.4731" height="104.757" fill="#343434"/>
<rect x="548.338" y="756.243" width="65.4731" height="104.757" fill="#343434"/>
<rect x="548.338" y="756.243" width="65.4731" height="104.757" fill="#343434"/>
<rect x="548.338" y="756.243" width="65.4731" height="104.757" fill="#343434"/>
<rect x="548.338" y="438.698" width="65.4731" height="104.757" fill="#343434"/>
<rect x="548.338" y="438.698" width="65.4731" height="104.757" fill="#343434"/>
<rect x="548.338" y="438.698" width="65.4731" height="104.757" fill="#343434"/>
<rect x="548.338" y="438.698" width="65.4731" height="104.757" fill="#343434"/>
<rect x="548.338" y="0.0281372" width="65.4731" height="104.757" fill="#343434"/>
<rect x="548.338" y="0.0281372" width="65.4731" height="104.757" fill="#343434"/>
<rect x="548.338" y="0.0281372" width="65.4731" height="104.757" fill="#343434"/>
<rect x="548.338" y="0.0281372" width="65.4731" height="104.757" fill="#343434"/>
<rect x="666.189" y="756.243" width="65.4731" height="104.757" fill="#343434"/>
<rect x="666.189" y="756.243" width="65.4731" height="104.757" fill="#343434"/>
<rect x="666.189" y="756.243" width="65.4731" height="104.757" fill="#343434"/>
<rect x="666.189" y="756.243" width="65.4731" height="104.757" fill="#343434"/>
<rect x="666.189" y="438.698" width="65.4731" height="104.757" fill="#343434"/>
<rect x="666.189" y="438.698" width="65.4731" height="104.757" fill="#343434"/>
<rect x="666.189" y="438.698" width="65.4731" height="104.757" fill="#343434"/>
<rect x="666.189" y="438.698" width="65.4731" height="104.757" fill="#343434"/>
<rect x="666.189" y="0.0281372" width="65.4731" height="104.757" fill="#343434"/>
<rect x="666.189" y="0.0281372" width="65.4731" height="104.757" fill="#343434"/>
<rect x="666.189" y="0.0281372" width="65.4731" height="104.757" fill="#343434"/>
<rect x="666.189" y="0.0281372" width="65.4731" height="104.757" fill="#343434"/>
</svg>
