<?xml version="1.0" encoding="UTF-8" standalone="no"?>
<svg
   xmlns:dc="http://purl.org/dc/elements/1.1/"
   xmlns:cc="http://creativecommons.org/ns#"
   xmlns:rdf="http://www.w3.org/1999/02/22-rdf-syntax-ns#"
   xmlns:svg="http://www.w3.org/2000/svg"
   xmlns="http://www.w3.org/2000/svg"
   xmlns:sodipodi="http://sodipodi.sourceforge.net/DTD/sodipodi-0.dtd"
   xmlns:inkscape="http://www.inkscape.org/namespaces/inkscape"
   version="1.0"
   id="katman_1"
   x="0px"
   y="0px"
   viewBox="0 0 296.79999 296.79999"
   xml:space="preserve"
   sodipodi:docname="insta-logo.svg"
   inkscape:version="1.0.1 (3bc2e813f5, 2020-09-07)"
   width="296.79999"
   height="296.79999"><metadata
   id="metadata11"><rdf:RDF><cc:Work
       rdf:about=""><dc:format>image/svg+xml</dc:format><dc:type
         rdf:resource="http://purl.org/dc/dcmitype/StillImage" /><dc:title></dc:title></cc:Work></rdf:RDF></metadata><defs
   id="defs9" /><sodipodi:namedview
   pagecolor="#ffffff"
   bordercolor="#666666"
   borderopacity="1"
   objecttolerance="10"
   gridtolerance="10"
   guidetolerance="10"
   inkscape:pageopacity="0"
   inkscape:pageshadow="2"
   inkscape:window-width="1920"
   inkscape:window-height="1009"
   id="namedview7"
   showgrid="false"
   inkscape:zoom="0.61400439"
   inkscape:cx="198.3408"
   inkscape:cy="294.64924"
   inkscape:window-x="-8"
   inkscape:window-y="-8"
   inkscape:window-maximized="1"
   inkscape:current-layer="katman_1"
   fit-margin-top="0"
   fit-margin-left="0"
   fit-margin-right="0"
   fit-margin-bottom="0" />
<style
   type="text/css"
   id="style2">
	.st0{fill:#010202;}
</style>
<path
   class="st0"
   d="M 87.2,295.9 C 74.9,295.7 62.7,293.3 51.2,289 41.3,285.3 32.3,279.4 24.9,271.9 17.3,264.5 11.5,255.5 7.8,245.6 3.5,234.1 1.2,221.9 0.9,209.6 0.2,193.8 0,188.7 0,148.4 0,108.1 0.2,103 0.9,87.2 1.1,74.9 3.5,62.7 7.8,51.2 11.5,41.3 17.4,32.3 24.9,24.9 32.3,17.4 41.3,11.5 51.2,7.8 62.7,3.5 74.9,1.1 87.2,0.9 103,0.2 108.1,0 148.4,0 c 40.3,0 45.4,0.2 61.2,0.9 12.3,0.2 24.5,2.6 36,6.9 9.9,3.7 18.9,9.6 26.3,17.1 7.6,7.4 13.4,16.4 17.1,26.3 4.3,11.5 6.7,23.7 6.9,36 0.7,15.8 0.9,20.9 0.9,61.2 0,40.3 -0.2,45.4 -0.9,61.2 -0.3,12.3 -2.6,24.5 -6.9,36 -3.7,9.9 -9.6,18.9 -17.1,26.3 -7.4,7.6 -16.4,13.4 -26.3,17.1 -11.5,4.3 -23.7,6.6 -36,6.9 -15.8,0.7 -20.9,0.9 -61.2,0.9 -40.3,0 -45.4,-0.2 -61.2,-0.9 z M 88.4,27.6 C 79,27.7 69.7,29.4 60.8,32.7 54.4,35.1 48.5,38.9 43.7,43.8 38.8,48.6 35,54.4 32.6,60.9 c -3.3,8.8 -5,18.2 -5.1,27.6 -0.7,15.7 -0.9,20.3 -0.9,60 0,39.7 0.2,44.3 0.9,60 0.1,9.4 1.8,18.7 5.1,27.6 2.4,6.4 6.2,12.3 11.1,17.1 4.8,4.9 10.6,8.7 17.1,11.1 8.8,3.3 18.2,5 27.6,5.1 15.7,0.7 20.3,0.9 60,0.9 39.7,0 44.3,-0.1 60,-0.9 9.4,-0.1 18.7,-1.8 27.6,-5.1 6.5,-2.4 12.3,-6.2 17.1,-11.1 4.9,-4.8 8.7,-10.6 11.1,-17.1 3.3,-8.8 5,-18.2 5.1,-27.6 0.7,-15.7 0.9,-20.3 0.9,-60 0,-39.7 -0.1,-44.3 -0.9,-60 -0.1,-9.4 -1.8,-18.7 -5.1,-27.6 -2.4,-6.4 -6.2,-12.3 -11.1,-17.1 -4.8,-4.9 -10.6,-8.7 -17.1,-11.1 -8.8,-3.3 -18.2,-5 -27.6,-5.1 -15.6,-0.7 -20.3,-0.9 -60,-0.9 -39.7,0 -44.3,0.1 -60,0.9 z M 74.8,148.4 c 0,-40.7 33,-73.6 73.6,-73.7 40.7,0 73.6,33 73.6,73.6 0,0 0,0 0,0 0,40.7 -33,73.6 -73.6,73.7 0,0 0,0 0,0 -40.7,0.1 -73.6,-32.9 -73.6,-73.6 0,0 0,0 0,0 z m 25.8,0 c 0,26.4 21.4,47.8 47.8,47.8 26.4,0 47.8,-21.4 47.8,-47.8 0,0 0,0 0,0 0,-26.4 -21.4,-47.8 -47.8,-47.8 0,0 0,0 0,0 -26.4,0 -47.8,21.4 -47.8,47.8 z M 208.8,69.6 c 0,-10.2 8.3,-18.4 18.5,-18.4 10.2,0 18.5,8.3 18.5,18.4 0,0 0,0 0,0 0,10.2 -8.2,18.4 -18.4,18.4 0,0 0,0 0,0 -10.3,0 -18.6,-8.3 -18.6,-18.4 0,-0.1 0,-0.1 0,0 z"
   id="path4"
   style="fill:#ffffff;fill-opacity:1" />
</svg>
