<?xml version="1.0" encoding="UTF-8" standalone="no"?>
<svg
   xmlns:dc="http://purl.org/dc/elements/1.1/"
   xmlns:cc="http://creativecommons.org/ns#"
   xmlns:rdf="http://www.w3.org/1999/02/22-rdf-syntax-ns#"
   xmlns:svg="http://www.w3.org/2000/svg"
   xmlns="http://www.w3.org/2000/svg"
   xmlns:sodipodi="http://sodipodi.sourceforge.net/DTD/sodipodi-0.dtd"
   xmlns:inkscape="http://www.inkscape.org/namespaces/inkscape"
   viewBox="0 0 164.7669 165.35769"
   version="1.1"
   id="svg22"
   sodipodi:docname="wp-logo.svg"
   width="164.76691"
   height="165.3577"
   inkscape:version="1.0.1 (3bc2e813f5, 2020-09-07)">
  <metadata
     id="metadata26">
    <rdf:RDF>
      <cc:Work
         rdf:about="">
        <dc:format>image/svg+xml</dc:format>
        <dc:type
           rdf:resource="http://purl.org/dc/dcmitype/StillImage" />
        <dc:title></dc:title>
      </cc:Work>
    </rdf:RDF>
  </metadata>
  <sodipodi:namedview
     pagecolor="#ffffff"
     bordercolor="#666666"
     borderopacity="1"
     objecttolerance="10"
     gridtolerance="10"
     guidetolerance="10"
     inkscape:pageopacity="0"
     inkscape:pageshadow="2"
     inkscape:window-width="1920"
     inkscape:window-height="1009"
     id="namedview24"
     showgrid="false"
     fit-margin-top="0"
     fit-margin-left="0"
     fit-margin-right="0"
     fit-margin-bottom="0"
     inkscape:zoom="1.1990749"
     inkscape:cx="131.15706"
     inkscape:cy="29.438133"
     inkscape:window-x="-8"
     inkscape:window-y="-8"
     inkscape:window-maximized="1"
     inkscape:current-layer="svg22" />
  <defs
     id="defs10">
    <linearGradient
       id="b"
       x1="85.915001"
       x2="86.535004"
       y1="32.567001"
       y2="137.092"
       gradientUnits="userSpaceOnUse"
       gradientTransform="translate(-5.2979387,-5.097148)">
      <stop
         offset="0"
         stop-color="#57d163"
         id="stop2" />
      <stop
         offset="1"
         stop-color="#23b33a"
         id="stop4" />
    </linearGradient>
    <filter
       id="a"
       width="1.115"
       height="1.114"
       x="-0.057"
       y="-0.057"
       color-interpolation-filters="sRGB">
      <feGaussianBlur
         stdDeviation="3.531"
         id="feGaussianBlur7" />
    </filter>
  </defs>
  <path
     fill="#b3b3b3"
     d="m 49.234061,133.35285 2.235,1.324 c 9.387,5.571 20.15,8.518 31.126,8.523 h 0.023 c 33.706999,0 61.138999,-27.426 61.152999,-61.134998 0.006,-16.335 -6.349,-31.696 -17.895,-43.251 a 60.75,60.75 0 0 0 -43.233999,-17.928 c -33.733,0 -61.166,27.423 -61.178,61.13 a 60.98,60.98 0 0 0 9.349,32.534998 l 1.455,2.312 -6.179,22.558 z m -40.8109997,23.544 10.4389997,-38.114 c -6.438,-11.154 -9.8249997,-23.807998 -9.8209997,-36.771998 0.017,-40.556 33.0209997,-73.55 73.5779997,-73.55 19.680999,0.01 38.153999,7.669 52.046999,21.572 13.893,13.903 21.537,32.383 21.53,52.037 -0.018,40.552998 -33.027,73.552998 -73.577999,73.552998 h -0.032 c -12.313,-0.005 -24.412,-3.094 -35.159,-8.954 z m 0,0"
     filter="url(#a)"
     id="path12" />
  <path
     fill="#ffffff"
     d="m 7.6680613,156.14085 10.4389997,-38.114 A 73.42,73.42 0 0 1 8.2860613,81.254852 c 0.017,-40.556 33.0209997,-73.55 73.5779997,-73.55 19.680999,0.01 38.153999,7.669 52.046999,21.572 13.893,13.903 21.537,32.383 21.53,52.037 -0.018,40.552998 -33.027,73.552998 -73.577999,73.552998 h -0.032 c -12.313,-0.005 -24.412,-3.094 -35.159,-8.954 z"
     id="path14" />
  <path
     fill="url(#linearGradient1780)"
     d="m 81.886061,20.129852 c -33.733,0 -61.166,27.423 -61.178,61.13 a 60.98,60.98 0 0 0 9.349,32.534998 l 1.455,2.312 -6.179,22.559 23.146,-6.069 2.235,1.324 c 9.387,5.571 20.15,8.518 31.126,8.524 h 0.023 c 33.706999,0 61.139999,-27.426 61.152999,-61.134998 a 60.75,60.75 0 0 0 -17.895,-43.251 60.75,60.75 0 0 0 -43.234999,-17.929 z"
     id="path16" />
  <path
     fill="url(#b)"
     d="m 81.886061,20.129852 c -33.733,0 -61.166,27.423 -61.178,61.13 a 60.98,60.98 0 0 0 9.349,32.534998 l 1.455,2.313 -6.179,22.558 23.146,-6.069 2.235,1.324 c 9.387,5.571 20.15,8.517 31.126,8.523 h 0.023 c 33.706999,0 61.139999,-27.426 61.152999,-61.134998 a 60.75,60.75 0 0 0 -17.895,-43.251 60.75,60.75 0 0 0 -43.234999,-17.928 z"
     id="path18"
     style="fill:url(#b)" />
  <path
     fill="#ffffff"
     fill-rule="evenodd"
     d="m 63.474061,50.505852 c -1.378,-3.061 -2.828,-3.123 -4.137,-3.176 l -3.524,-0.043 c -1.226,0 -3.218,0.46 -4.902,2.3 -1.684,1.84 -6.435,6.287 -6.435,15.332 0,9.045 6.588,17.785 7.506,19.013 0.918,1.228 12.718,20.380998 31.405,27.749998 15.529,6.124 18.688999,4.906 22.060999,4.6 3.372,-0.306 10.877,-4.447 12.408,-8.74 1.531,-4.293 1.532,-7.970998 1.073,-8.739998 -0.459,-0.769 -1.685,-1.226 -3.525,-2.146 -1.84,-0.92 -10.877,-5.367 -12.562,-5.981 -1.685,-0.614 -2.909999,-0.919 -4.136999,0.921 -1.227,1.84 -4.746,5.979 -5.819,7.206 -1.073,1.226998 -2.144,1.380998 -3.984,0.462 -1.84,-0.919 -7.76,-2.861 -14.784,-9.124 -5.465,-4.873 -9.154,-10.891 -10.228,-12.73 -1.074,-1.839 -0.114,-2.835 0.808,-3.751 0.825,-0.824 1.838,-2.147 2.759,-3.22 0.921,-1.073 1.224,-1.84 1.836,-3.065 0.612,-1.225 0.307,-2.301 -0.153,-3.22 -0.46,-0.919 -4.032,-10.011 -5.666,-13.647"
     id="path20" />
</svg>
